<?xml version="1.0"?>
<!-- Generated by SVGo -->
<svg width="1000" height="800"
     xmlns="http://www.w3.org/2000/svg" 
     xmlns:xlink="http://www.w3.org/1999/xlink">
<path d="M500,400 L500,120 A280,280 0 1,1 488,679 L500,400" style="fill:red;stroke:red"/>
<text x="835" y="407" >一八五</text>
<path d="M500,400 L488,679 A280,280 0 0,1 225,351 L500,400" style="fill:blue;stroke:blue"/>
<text x="238" y="610" >guesslin</text>
<path d="M500,400 L225,351 A280,280 0 0,1 384,146 L500,400" style="fill:black;stroke:black"/>
<text x="235" y="195" >dkc</text>
<path d="M500,400 L384,146 A280,280 0 0,1 500,120 L500,400" style="fill:green;stroke:green"/>
<text x="429" y="72" >drk</text>
</svg>
